{
	"asset":{
		"generator":"Khronos glTF Blender I/O v5.1.19",
		"version":"2.0"
	},
	"scene":0,
	"scenes":[
		{
			"name":"Scene",
			"nodes":[
				0,
				1,
				2,
				3,
				4,
				5,
				6,
				7,
				8,
				9,
				10,
				11,
				12,
				13,
				14,
				15,
				16,
				17,
				18,
				19,
				20
			]
		}
	],
	"nodes":[
		{
			"mesh":0,
			"name":"AK_TriggerHandle03_lp",
			"rotation":[
				0,
				0,
				-0.7071066498756409,
				0.70710688829422
			],
			"translation":[
				0.15564730763435364,
				0.3328199088573456,
				0.08706770092248917
			]
		},
		{
			"mesh":1,
			"name":"AK_TriggerHandle02_lp",
			"rotation":[
				0,
				0,
				-0.7071066498756409,
				0.70710688829422
			],
			"translation":[
				0.15564730763435364,
				0.3328199088573456,
				0.08706770092248917
			]
		},
		{
			"mesh":2,
			"name":"AK_Barrel03_lp",
			"translation":[
				1.3093767166137695,
				0.40382668375968933,
				0
			]
		},
		{
			"mesh":3,
			"name":"AK_Chassis02_lp",
			"rotation":[
				0,
				0,
				-0.7071066498756409,
				0.70710688829422
			],
			"translation":[
				0.15564730763435364,
				0.3328199088573456,
				0.08706770092248917
			]
		},
		{
			"mesh":4,
			"name":"AK_Handle_lp",
			"rotation":[
				0,
				0,
				-0.7071066498756409,
				0.70710688829422
			],
			"translation":[
				0.15564730763435364,
				0.3328199088573456,
				0.08706770092248917
			]
		},
		{
			"mesh":5,
			"name":"AK_Chassis01_lp",
			"rotation":[
				0,
				0,
				-0.7071066498756409,
				0.70710688829422
			],
			"translation":[
				0.15564730763435364,
				0.3328199088573456,
				0.08706770092248917
			]
		},
		{
			"mesh":6,
			"name":"AK_Sights_04_lp",
			"translation":[
				1.1128239631652832,
				0.24450787901878357,
				0
			]
		},
		{
			"mesh":7,
			"name":"AK_Barrel01_lp",
			"translation":[
				1.3093767166137695,
				0.40382668375968933,
				0
			]
		},
		{
			"mesh":8,
			"name":"AK_Back_lp",
			"rotation":[
				0,
				0,
				-0.7071066498756409,
				0.70710688829422
			],
			"translation":[
				0.15564730763435364,
				0.3328199088573456,
				0.08706770092248917
			]
		},
		{
			"mesh":9,
			"name":"AK_Trigger_lp",
			"rotation":[
				0,
				0,
				-0.7071066498756409,
				0.70710688829422
			],
			"translation":[
				0.15564730763435364,
				0.3328199088573456,
				0.08706770092248917
			]
		},
		{
			"mesh":10,
			"name":"AK_Buttstock_lp",
			"translation":[
				-1.217042088508606,
				0.174170583486557,
				0
			]
		},
		{
			"mesh":11,
			"name":"AK_Sights_03_lp",
			"translation":[
				1.1128239631652832,
				0.24450787901878357,
				0
			]
		},
		{
			"mesh":12,
			"name":"AK_TriggerHandle_lp",
			"rotation":[
				0,
				0,
				-0.7071066498756409,
				0.70710688829422
			],
			"translation":[
				0.15564730763435364,
				0.3328199088573456,
				0.08706770092248917
			]
		},
		{
			"mesh":13,
			"name":"AK_WoodHandle02_lp",
			"translation":[
				1.1128239631652832,
				0.24450787901878357,
				0
			]
		},
		{
			"mesh":14,
			"name":"AK_Plate_lp",
			"rotation":[
				0,
				0,
				-0.7071066498756409,
				0.70710688829422
			],
			"translation":[
				0.15564730763435364,
				0.3328199088573456,
				0.08706770092248917
			]
		},
		{
			"mesh":15,
			"name":"AK_Magazine_lp",
			"translation":[
				-0.11094316840171814,
				0.10654200613498688,
				0
			]
		},
		{
			"mesh":16,
			"name":"AK_WoodHandle_lp",
			"translation":[
				1.1128239631652832,
				0.24450787901878357,
				0
			]
		},
		{
			"mesh":17,
			"name":"AK_Sights_02_lp",
			"translation":[
				1.1128239631652832,
				0.24450787901878357,
				0
			]
		},
		{
			"mesh":18,
			"name":"AK_Sights_01_lp",
			"translation":[
				1.1128239631652832,
				0.24450787901878357,
				0
			]
		},
		{
			"mesh":19,
			"name":"AK_Barrel02_lp",
			"translation":[
				1.3093767166137695,
				0.40382668375968933,
				0
			]
		},
		{
			"mesh":20,
			"name":"AK_WoodHandle03_lp",
			"translation":[
				1.1128239631652832,
				0.24450787901878357,
				0
			]
		}
	],
	"materials":[
		{
			"doubleSided":true,
			"name":"Material.001",
			"normalTexture":{
				"index":0
			},
			"pbrMetallicRoughness":{
				"baseColorTexture":{
					"index":1
				},
				"metallicRoughnessTexture":{
					"index":2
				}
			}
		}
	],
	"meshes":[
		{
			"name":"Plane.018",
			"primitives":[
				{
					"attributes":{
						"POSITION":0,
						"NORMAL":1,
						"TEXCOORD_0":2
					},
					"indices":3,
					"material":0
				}
			]
		},
		{
			"name":"Plane.017",
			"primitives":[
				{
					"attributes":{
						"POSITION":4,
						"NORMAL":5,
						"TEXCOORD_0":6
					},
					"indices":7,
					"material":0
				}
			]
		},
		{
			"name":"Cylinder_Piece.005",
			"primitives":[
				{
					"attributes":{
						"POSITION":8,
						"NORMAL":9,
						"TEXCOORD_0":10
					},
					"indices":11,
					"material":0
				}
			]
		},
		{
			"name":"Plane.004",
			"primitives":[
				{
					"attributes":{
						"POSITION":12,
						"NORMAL":13,
						"TEXCOORD_0":14
					},
					"indices":15,
					"material":0
				}
			]
		},
		{
			"name":"Plane.001",
			"primitives":[
				{
					"attributes":{
						"POSITION":16,
						"NORMAL":17,
						"TEXCOORD_0":18
					},
					"indices":19,
					"material":0
				}
			]
		},
		{
			"name":"Plane.012",
			"primitives":[
				{
					"attributes":{
						"POSITION":20,
						"NORMAL":21,
						"TEXCOORD_0":22
					},
					"indices":23,
					"material":0
				}
			]
		},
		{
			"name":"Cube.001_Piece.020",
			"primitives":[
				{
					"attributes":{
						"POSITION":24,
						"NORMAL":25,
						"TEXCOORD_0":26,
						"COLOR_0":27,
						"COLOR_1":28
					},
					"indices":29,
					"material":0
				}
			]
		},
		{
			"name":"Cylinder_Piece",
			"primitives":[
				{
					"attributes":{
						"POSITION":30,
						"NORMAL":31,
						"TEXCOORD_0":32
					},
					"indices":33,
					"material":0
				}
			]
		},
		{
			"name":"Plane.007",
			"primitives":[
				{
					"attributes":{
						"POSITION":34,
						"NORMAL":35,
						"TEXCOORD_0":36
					},
					"indices":37,
					"material":0
				}
			]
		},
		{
			"name":"Plane.006",
			"primitives":[
				{
					"attributes":{
						"POSITION":38,
						"NORMAL":39,
						"TEXCOORD_0":40
					},
					"indices":41,
					"material":0
				}
			]
		},
		{
			"name":"Cube.018",
			"primitives":[
				{
					"attributes":{
						"POSITION":42,
						"NORMAL":43,
						"TEXCOORD_0":44
					},
					"indices":45,
					"material":0
				}
			]
		},
		{
			"name":"Cube.001_Piece.019",
			"primitives":[
				{
					"attributes":{
						"POSITION":46,
						"NORMAL":47,
						"TEXCOORD_0":48,
						"COLOR_0":49,
						"COLOR_1":50
					},
					"indices":51,
					"material":0
				}
			]
		},
		{
			"name":"Plane.005",
			"primitives":[
				{
					"attributes":{
						"POSITION":52,
						"NORMAL":53,
						"TEXCOORD_0":54
					},
					"indices":55,
					"material":0
				}
			]
		},
		{
			"name":"Cube.001_Piece.016",
			"primitives":[
				{
					"attributes":{
						"POSITION":56,
						"NORMAL":57,
						"TEXCOORD_0":58,
						"COLOR_0":59,
						"COLOR_1":60
					},
					"indices":61,
					"material":0
				}
			]
		},
		{
			"name":"Plane.013",
			"primitives":[
				{
					"attributes":{
						"POSITION":62,
						"NORMAL":63,
						"TEXCOORD_0":64
					},
					"indices":65,
					"material":0
				}
			]
		},
		{
			"name":"Cube.011",
			"primitives":[
				{
					"attributes":{
						"POSITION":66,
						"NORMAL":67,
						"TEXCOORD_0":68
					},
					"indices":69,
					"material":0
				}
			]
		},
		{
			"name":"Cube.001_Piece.015",
			"primitives":[
				{
					"attributes":{
						"POSITION":70,
						"NORMAL":71,
						"TEXCOORD_0":72,
						"COLOR_0":73,
						"COLOR_1":74
					},
					"indices":75,
					"material":0
				}
			]
		},
		{
			"name":"Cube.001_Piece.018",
			"primitives":[
				{
					"attributes":{
						"POSITION":76,
						"NORMAL":77,
						"TEXCOORD_0":78,
						"COLOR_0":79,
						"COLOR_1":80
					},
					"indices":81,
					"material":0
				}
			]
		},
		{
			"name":"Cube.001_Piece.017",
			"primitives":[
				{
					"attributes":{
						"POSITION":82,
						"NORMAL":83,
						"TEXCOORD_0":84,
						"COLOR_0":85,
						"COLOR_1":86
					},
					"indices":87,
					"material":0
				}
			]
		},
		{
			"name":"Cylinder_Piece.004",
			"primitives":[
				{
					"attributes":{
						"POSITION":88,
						"NORMAL":89,
						"TEXCOORD_0":90
					},
					"indices":91,
					"material":0
				}
			]
		},
		{
			"name":"Cube.001_Piece.021",
			"primitives":[
				{
					"attributes":{
						"POSITION":92,
						"NORMAL":93,
						"TEXCOORD_0":94,
						"COLOR_0":95,
						"COLOR_1":96
					},
					"indices":97,
					"material":0
				}
			]
		}
	],
	"textures":[
		{
			"sampler":0,
			"source":0
		},
		{
			"sampler":0,
			"source":1
		},
		{
			"sampler":0,
			"source":2
		}
	],
	"images":[
		{
			"mimeType":"image/png",
			"name":"Material.001_Normal",
			"uri":"Material.001_Normal.png"
		},
		{
			"mimeType":"image/png",
			"name":"Material.001_BaseColor",
			"uri":"Material.001_BaseColor.png"
		},
		{
			"mimeType":"image/png",
			"name":"Material.001_Metallic-Material.001_Roughness",
			"uri":"Material.001_Metallic-Material.001_Roughness.png"
		}
	],
	"accessors":[
		{
			"bufferView":0,
			"componentType":5126,
			"count":54,
			"max":[
				0.480567991733551,
				-0.46852490305900574,
				-0.05064927786588669
			],
			"min":[
				0.2479448914527893,
				-0.5662196278572083,
				-0.12348625808954239
			],
			"type":"VEC3"
		},
		{
			"bufferView":1,
			"componentType":5126,
			"count":54,
			"type":"VEC3"
		},
		{
			"bufferView":2,
			"componentType":5126,
			"count":54,
			"type":"VEC2"
		},
		{
			"bufferView":3,
			"componentType":5123,
			"count":126,
			"type":"SCALAR"
		},
		{
			"bufferView":4,
			"componentType":5126,
			"count":26,
			"max":[
				0.3792356550693512,
				-0.48046594858169556,
				-0.03047100082039833
			],
			"min":[
				0.3459623157978058,
				-0.513739287853241,
				-0.0502031035721302
			],
			"type":"VEC3"
		},
		{
			"bufferView":5,
			"componentType":5126,
			"count":26,
			"type":"VEC3"
		},
		{
			"bufferView":6,
			"componentType":5126,
			"count":26,
			"type":"VEC2"
		},
		{
			"bufferView":7,
			"componentType":5123,
			"count":66,
			"type":"SCALAR"
		},
		{
			"bufferView":8,
			"componentType":5126,
			"count":479,
			"max":[
				0.5698797702789307,
				0.04638177528977394,
				0.06803515553474426
			],
			"min":[
				0.27253103256225586,
				-0.24809616804122925,
				-0.06803515553474426
			],
			"type":"VEC3"
		},
		{
			"bufferView":9,
			"componentType":5126,
			"count":479,
			"type":"VEC3"
		},
		{
			"bufferView":10,
			"componentType":5126,
			"count":479,
			"type":"VEC2"
		},
		{
			"bufferView":11,
			"componentType":5123,
			"count":1422,
			"type":"SCALAR"
		},
		{
			"bufferView":12,
			"componentType":5126,
			"count":524,
			"max":[
				0.2988094091415405,
				0.17463158071041107,
				0.010250337421894073
			],
			"min":[
				-0.09825259447097778,
				-1.3432152271270752,
				-0.18438588082790375
			],
			"type":"VEC3"
		},
		{
			"bufferView":13,
			"componentType":5126,
			"count":524,
			"type":"VEC3"
		},
		{
			"bufferView":14,
			"componentType":5126,
			"count":524,
			"type":"VEC2"
		},
		{
			"bufferView":15,
			"componentType":5123,
			"count":1584,
			"type":"SCALAR"
		},
		{
			"bufferView":16,
			"componentType":5126,
			"count":44,
			"max":[
				0.028559094294905663,
				0.06061495468020439,
				0.16877223551273346
			],
			"min":[
				-0.028559084981679916,
				-7.429147808579728e-05,
				-0.02946721389889717
			],
			"type":"VEC3"
		},
		{
			"bufferView":17,
			"componentType":5126,
			"count":44,
			"type":"VEC3"
		},
		{
			"bufferView":18,
			"componentType":5126,
			"count":44,
			"type":"VEC2"
		},
		{
			"bufferView":19,
			"componentType":5123,
			"count":90,
			"type":"SCALAR"
		},
		{
			"bufferView":20,
			"componentType":5126,
			"count":205,
			"max":[
				0.06508710980415344,
				0.0654531717300415,
				0.007426954805850983
			],
			"min":[
				-0.12805429100990295,
				-1.243006944656372,
				-0.1815626621246338
			],
			"type":"VEC3"
		},
		{
			"bufferView":21,
			"componentType":5126,
			"count":205,
			"type":"VEC3"
		},
		{
			"bufferView":22,
			"componentType":5126,
			"count":205,
			"type":"VEC2"
		},
		{
			"bufferView":23,
			"componentType":5123,
			"count":663,
			"type":"SCALAR"
		},
		{
			"bufferView":24,
			"componentType":5126,
			"count":70,
			"max":[
				-0.5346108078956604,
				0.22856035828590393,
				0.057747721672058105
			],
			"min":[
				-0.8917235136032104,
				0.085176482796669,
				-0.057747699320316315
			],
			"type":"VEC3"
		},
		{
			"bufferView":25,
			"componentType":5126,
			"count":70,
			"type":"VEC3"
		},
		{
			"bufferView":26,
			"componentType":5126,
			"count":70,
			"type":"VEC2"
		},
		{
			"bufferView":27,
			"componentType":5121,
			"count":70,
			"normalized":true,
			"type":"VEC4"
		},
		{
			"bufferView":28,
			"componentType":5123,
			"count":70,
			"normalized":true,
			"type":"VEC4"
		},
		{
			"bufferView":29,
			"componentType":5123,
			"count":144,
			"type":"SCALAR"
		},
		{
			"bufferView":30,
			"componentType":5126,
			"count":1914,
			"max":[
				1.3800162076950073,
				0.07000000774860382,
				0.07000001519918442
			],
			"min":[
				-0.07496584206819534,
				-0.23671647906303406,
				-0.07000001519918442
			],
			"type":"VEC3"
		},
		{
			"bufferView":31,
			"componentType":5126,
			"count":1914,
			"type":"VEC3"
		},
		{
			"bufferView":32,
			"componentType":5126,
			"count":1914,
			"type":"VEC2"
		},
		{
			"bufferView":33,
			"componentType":5123,
			"count":5976,
			"type":"SCALAR"
		},
		{
			"bufferView":34,
			"componentType":5126,
			"count":22,
			"max":[
				0.004638604819774628,
				-1.1402231454849243,
				-0.06503081321716309
			],
			"min":[
				-0.044953860342502594,
				-1.2445498704910278,
				-0.10910481214523315
			],
			"type":"VEC3"
		},
		{
			"bufferView":35,
			"componentType":5126,
			"count":22,
			"type":"VEC3"
		},
		{
			"bufferView":36,
			"componentType":5126,
			"count":22,
			"type":"VEC2"
		},
		{
			"bufferView":37,
			"componentType":5123,
			"count":42,
			"type":"SCALAR"
		},
		{
			"bufferView":38,
			"componentType":5126,
			"count":96,
			"max":[
				0.4112035632133484,
				-0.7116661071777344,
				-0.07049323618412018
			],
			"min":[
				0.2605877220630646,
				-0.8544390201568604,
				-0.10364236682653427
			],
			"type":"VEC3"
		},
		{
			"bufferView":39,
			"componentType":5126,
			"count":96,
			"type":"VEC3"
		},
		{
			"bufferView":40,
			"componentType":5126,
			"count":96,
			"type":"VEC2"
		},
		{
			"bufferView":41,
			"componentType":5123,
			"count":258,
			"type":"SCALAR"
		},
		{
			"bufferView":42,
			"componentType":5126,
			"count":233,
			"max":[
				0.11084657907485962,
				0.11020594090223312,
				0.08352849632501602
			],
			"min":[
				-1.1034654378890991,
				-0.4192984700202942,
				-0.08352849632501602
			],
			"type":"VEC3"
		},
		{
			"bufferView":43,
			"componentType":5126,
			"count":233,
			"type":"VEC3"
		},
		{
			"bufferView":44,
			"componentType":5126,
			"count":233,
			"type":"VEC2"
		},
		{
			"bufferView":45,
			"componentType":5123,
			"count":858,
			"type":"SCALAR"
		},
		{
			"bufferView":46,
			"componentType":5126,
			"count":217,
			"max":[
				-0.5323935747146606,
				0.28165385127067566,
				0.07196094840765
			],
			"min":[
				-0.6115795373916626,
				0.20246785879135132,
				-0.07196089625358582
			],
			"type":"VEC3"
		},
		{
			"bufferView":47,
			"componentType":5126,
			"count":217,
			"type":"VEC3"
		},
		{
			"bufferView":48,
			"componentType":5126,
			"count":217,
			"type":"VEC2"
		},
		{
			"bufferView":49,
			"componentType":5121,
			"count":217,
			"normalized":true,
			"type":"VEC4"
		},
		{
			"bufferView":50,
			"componentType":5123,
			"count":217,
			"normalized":true,
			"type":"VEC4"
		},
		{
			"bufferView":51,
			"componentType":5123,
			"count":660,
			"type":"SCALAR"
		},
		{
			"bufferView":52,
			"componentType":5126,
			"count":676,
			"max":[
				0.8591944575309753,
				-0.45932862162590027,
				0.001324199140071869
			],
			"min":[
				0.2797698378562927,
				-1.2760140895843506,
				-0.17545485496520996
			],
			"type":"VEC3"
		},
		{
			"bufferView":53,
			"componentType":5126,
			"count":676,
			"type":"VEC3"
		},
		{
			"bufferView":54,
			"componentType":5126,
			"count":676,
			"type":"VEC2"
		},
		{
			"bufferView":55,
			"componentType":5123,
			"count":2682,
			"type":"SCALAR"
		},
		{
			"bufferView":56,
			"componentType":5126,
			"count":442,
			"max":[
				0.08517652004957199,
				0.2543294429779053,
				0.08517652004957199
			],
			"min":[
				-0.5346108078956604,
				0.08961894363164902,
				-0.08517652004957199
			],
			"type":"VEC3"
		},
		{
			"bufferView":57,
			"componentType":5126,
			"count":442,
			"type":"VEC3"
		},
		{
			"bufferView":58,
			"componentType":5126,
			"count":442,
			"type":"VEC2"
		},
		{
			"bufferView":59,
			"componentType":5121,
			"count":442,
			"normalized":true,
			"type":"VEC4"
		},
		{
			"bufferView":60,
			"componentType":5123,
			"count":442,
			"normalized":true,
			"type":"VEC4"
		},
		{
			"bufferView":61,
			"componentType":5123,
			"count":1386,
			"type":"SCALAR"
		},
		{
			"bufferView":62,
			"componentType":5126,
			"count":239,
			"max":[
				0.18712182343006134,
				-0.3573330342769623,
				0.038438525050878525
			],
			"min":[
				0.005799002945423126,
				-0.9727730751037598,
				0.005788879469037056
			],
			"type":"VEC3"
		},
		{
			"bufferView":63,
			"componentType":5126,
			"count":239,
			"type":"VEC3"
		},
		{
			"bufferView":64,
			"componentType":5126,
			"count":239,
			"type":"VEC2"
		},
		{
			"bufferView":65,
			"componentType":5123,
			"count":699,
			"type":"SCALAR"
		},
		{
			"bufferView":66,
			"componentType":5126,
			"count":1668,
			"max":[
				0.40054237842559814,
				0,
				0.07787914574146271
			],
			"min":[
				-0.1964319348335266,
				-0.7982052564620972,
				-0.07787914574146271
			],
			"type":"VEC3"
		},
		{
			"bufferView":67,
			"componentType":5126,
			"count":1668,
			"type":"VEC3"
		},
		{
			"bufferView":68,
			"componentType":5126,
			"count":1668,
			"type":"VEC2"
		},
		{
			"bufferView":69,
			"componentType":5123,
			"count":8034,
			"type":"SCALAR"
		},
		{
			"bufferView":70,
			"componentType":5126,
			"count":342,
			"max":[
				0.08517645299434662,
				0.2997593879699707,
				0.08517652750015259
			],
			"min":[
				-0.9171774983406067,
				-0.1730770319700241,
				-0.08517652750015259
			],
			"type":"VEC3"
		},
		{
			"bufferView":71,
			"componentType":5126,
			"count":342,
			"type":"VEC3"
		},
		{
			"bufferView":72,
			"componentType":5126,
			"count":342,
			"type":"VEC2"
		},
		{
			"bufferView":73,
			"componentType":5121,
			"count":342,
			"normalized":true,
			"type":"VEC4"
		},
		{
			"bufferView":74,
			"componentType":5123,
			"count":342,
			"normalized":true,
			"type":"VEC4"
		},
		{
			"bufferView":75,
			"componentType":5123,
			"count":1266,
			"type":"SCALAR"
		},
		{
			"bufferView":76,
			"componentType":5126,
			"count":264,
			"max":[
				-0.8379855155944824,
				0.2917846143245697,
				0.07669143378734589
			],
			"min":[
				-0.8903361558914185,
				0.23943401873111725,
				-0.07669137418270111
			],
			"type":"VEC3"
		},
		{
			"bufferView":77,
			"componentType":5126,
			"count":264,
			"type":"VEC3"
		},
		{
			"bufferView":78,
			"componentType":5126,
			"count":264,
			"type":"VEC2"
		},
		{
			"bufferView":79,
			"componentType":5121,
			"count":264,
			"normalized":true,
			"type":"VEC4"
		},
		{
			"bufferView":80,
			"componentType":5123,
			"count":264,
			"normalized":true,
			"type":"VEC4"
		},
		{
			"bufferView":81,
			"componentType":5123,
			"count":744,
			"type":"SCALAR"
		},
		{
			"bufferView":82,
			"componentType":5126,
			"count":292,
			"max":[
				-0.579923152923584,
				0.2831372618675232,
				0.046157851815223694
			],
			"min":[
				-0.9031388759613037,
				0.20566929876804352,
				-0.046157799661159515
			],
			"type":"VEC3"
		},
		{
			"bufferView":83,
			"componentType":5126,
			"count":292,
			"type":"VEC3"
		},
		{
			"bufferView":84,
			"componentType":5126,
			"count":292,
			"type":"VEC2"
		},
		{
			"bufferView":85,
			"componentType":5121,
			"count":292,
			"normalized":true,
			"type":"VEC4"
		},
		{
			"bufferView":86,
			"componentType":5123,
			"count":292,
			"normalized":true,
			"type":"VEC4"
		},
		{
			"bufferView":87,
			"componentType":5123,
			"count":882,
			"type":"SCALAR"
		},
		{
			"bufferView":88,
			"componentType":5126,
			"count":285,
			"max":[
				1.044352412223816,
				0.14620301127433777,
				0.04808485507965088
			],
			"min":[
				0.8803039789199829,
				-0.2470616102218628,
				-0.04808485507965088
			],
			"type":"VEC3"
		},
		{
			"bufferView":89,
			"componentType":5126,
			"count":285,
			"type":"VEC3"
		},
		{
			"bufferView":90,
			"componentType":5126,
			"count":285,
			"type":"VEC2"
		},
		{
			"bufferView":91,
			"componentType":5123,
			"count":798,
			"type":"SCALAR"
		},
		{
			"bufferView":92,
			"componentType":5126,
			"count":381,
			"max":[
				0.12486141175031662,
				0.24696865677833557,
				0.08517652004957199
			],
			"min":[
				-0.7825451493263245,
				-0.14606063067913055,
				-0.08517652004957199
			],
			"type":"VEC3"
		},
		{
			"bufferView":93,
			"componentType":5126,
			"count":381,
			"type":"VEC3"
		},
		{
			"bufferView":94,
			"componentType":5126,
			"count":381,
			"type":"VEC2"
		},
		{
			"bufferView":95,
			"componentType":5121,
			"count":381,
			"normalized":true,
			"type":"VEC4"
		},
		{
			"bufferView":96,
			"componentType":5123,
			"count":381,
			"normalized":true,
			"type":"VEC4"
		},
		{
			"bufferView":97,
			"componentType":5123,
			"count":1320,
			"type":"SCALAR"
		}
	],
	"bufferViews":[
		{
			"buffer":0,
			"byteLength":648,
			"byteOffset":0,
			"target":34962
		},
		{
			"buffer":0,
			"byteLength":648,
			"byteOffset":648,
			"target":34962
		},
		{
			"buffer":0,
			"byteLength":432,
			"byteOffset":1296,
			"target":34962
		},
		{
			"buffer":0,
			"byteLength":252,
			"byteOffset":1728,
			"target":34963
		},
		{
			"buffer":0,
			"byteLength":312,
			"byteOffset":1980,
			"target":34962
		},
		{
			"buffer":0,
			"byteLength":312,
			"byteOffset":2292,
			"target":34962
		},
		{
			"buffer":0,
			"byteLength":208,
			"byteOffset":2604,
			"target":34962
		},
		{
			"buffer":0,
			"byteLength":132,
			"byteOffset":2812,
			"target":34963
		},
		{
			"buffer":0,
			"byteLength":5748,
			"byteOffset":2944,
			"target":34962
		},
		{
			"buffer":0,
			"byteLength":5748,
			"byteOffset":8692,
			"target":34962
		},
		{
			"buffer":0,
			"byteLength":3832,
			"byteOffset":14440,
			"target":34962
		},
		{
			"buffer":0,
			"byteLength":2844,
			"byteOffset":18272,
			"target":34963
		},
		{
			"buffer":0,
			"byteLength":6288,
			"byteOffset":21116,
			"target":34962
		},
		{
			"buffer":0,
			"byteLength":6288,
			"byteOffset":27404,
			"target":34962
		},
		{
			"buffer":0,
			"byteLength":4192,
			"byteOffset":33692,
			"target":34962
		},
		{
			"buffer":0,
			"byteLength":3168,
			"byteOffset":37884,
			"target":34963
		},
		{
			"buffer":0,
			"byteLength":528,
			"byteOffset":41052,
			"target":34962
		},
		{
			"buffer":0,
			"byteLength":528,
			"byteOffset":41580,
			"target":34962
		},
		{
			"buffer":0,
			"byteLength":352,
			"byteOffset":42108,
			"target":34962
		},
		{
			"buffer":0,
			"byteLength":180,
			"byteOffset":42460,
			"target":34963
		},
		{
			"buffer":0,
			"byteLength":2460,
			"byteOffset":42640,
			"target":34962
		},
		{
			"buffer":0,
			"byteLength":2460,
			"byteOffset":45100,
			"target":34962
		},
		{
			"buffer":0,
			"byteLength":1640,
			"byteOffset":47560,
			"target":34962
		},
		{
			"buffer":0,
			"byteLength":1326,
			"byteOffset":49200,
			"target":34963
		},
		{
			"buffer":0,
			"byteLength":840,
			"byteOffset":50528,
			"target":34962
		},
		{
			"buffer":0,
			"byteLength":840,
			"byteOffset":51368,
			"target":34962
		},
		{
			"buffer":0,
			"byteLength":560,
			"byteOffset":52208,
			"target":34962
		},
		{
			"buffer":0,
			"byteLength":280,
			"byteOffset":52768,
			"target":34962
		},
		{
			"buffer":0,
			"byteLength":560,
			"byteOffset":53048,
			"target":34962
		},
		{
			"buffer":0,
			"byteLength":288,
			"byteOffset":53608,
			"target":34963
		},
		{
			"buffer":0,
			"byteLength":22968,
			"byteOffset":53896,
			"target":34962
		},
		{
			"buffer":0,
			"byteLength":22968,
			"byteOffset":76864,
			"target":34962
		},
		{
			"buffer":0,
			"byteLength":15312,
			"byteOffset":99832,
			"target":34962
		},
		{
			"buffer":0,
			"byteLength":11952,
			"byteOffset":115144,
			"target":34963
		},
		{
			"buffer":0,
			"byteLength":264,
			"byteOffset":127096,
			"target":34962
		},
		{
			"buffer":0,
			"byteLength":264,
			"byteOffset":127360,
			"target":34962
		},
		{
			"buffer":0,
			"byteLength":176,
			"byteOffset":127624,
			"target":34962
		},
		{
			"buffer":0,
			"byteLength":84,
			"byteOffset":127800,
			"target":34963
		},
		{
			"buffer":0,
			"byteLength":1152,
			"byteOffset":127884,
			"target":34962
		},
		{
			"buffer":0,
			"byteLength":1152,
			"byteOffset":129036,
			"target":34962
		},
		{
			"buffer":0,
			"byteLength":768,
			"byteOffset":130188,
			"target":34962
		},
		{
			"buffer":0,
			"byteLength":516,
			"byteOffset":130956,
			"target":34963
		},
		{
			"buffer":0,
			"byteLength":2796,
			"byteOffset":131472,
			"target":34962
		},
		{
			"buffer":0,
			"byteLength":2796,
			"byteOffset":134268,
			"target":34962
		},
		{
			"buffer":0,
			"byteLength":1864,
			"byteOffset":137064,
			"target":34962
		},
		{
			"buffer":0,
			"byteLength":1716,
			"byteOffset":138928,
			"target":34963
		},
		{
			"buffer":0,
			"byteLength":2604,
			"byteOffset":140644,
			"target":34962
		},
		{
			"buffer":0,
			"byteLength":2604,
			"byteOffset":143248,
			"target":34962
		},
		{
			"buffer":0,
			"byteLength":1736,
			"byteOffset":145852,
			"target":34962
		},
		{
			"buffer":0,
			"byteLength":868,
			"byteOffset":147588,
			"target":34962
		},
		{
			"buffer":0,
			"byteLength":1736,
			"byteOffset":148456,
			"target":34962
		},
		{
			"buffer":0,
			"byteLength":1320,
			"byteOffset":150192,
			"target":34963
		},
		{
			"buffer":0,
			"byteLength":8112,
			"byteOffset":151512,
			"target":34962
		},
		{
			"buffer":0,
			"byteLength":8112,
			"byteOffset":159624,
			"target":34962
		},
		{
			"buffer":0,
			"byteLength":5408,
			"byteOffset":167736,
			"target":34962
		},
		{
			"buffer":0,
			"byteLength":5364,
			"byteOffset":173144,
			"target":34963
		},
		{
			"buffer":0,
			"byteLength":5304,
			"byteOffset":178508,
			"target":34962
		},
		{
			"buffer":0,
			"byteLength":5304,
			"byteOffset":183812,
			"target":34962
		},
		{
			"buffer":0,
			"byteLength":3536,
			"byteOffset":189116,
			"target":34962
		},
		{
			"buffer":0,
			"byteLength":1768,
			"byteOffset":192652,
			"target":34962
		},
		{
			"buffer":0,
			"byteLength":3536,
			"byteOffset":194420,
			"target":34962
		},
		{
			"buffer":0,
			"byteLength":2772,
			"byteOffset":197956,
			"target":34963
		},
		{
			"buffer":0,
			"byteLength":2868,
			"byteOffset":200728,
			"target":34962
		},
		{
			"buffer":0,
			"byteLength":2868,
			"byteOffset":203596,
			"target":34962
		},
		{
			"buffer":0,
			"byteLength":1912,
			"byteOffset":206464,
			"target":34962
		},
		{
			"buffer":0,
			"byteLength":1398,
			"byteOffset":208376,
			"target":34963
		},
		{
			"buffer":0,
			"byteLength":20016,
			"byteOffset":209776,
			"target":34962
		},
		{
			"buffer":0,
			"byteLength":20016,
			"byteOffset":229792,
			"target":34962
		},
		{
			"buffer":0,
			"byteLength":13344,
			"byteOffset":249808,
			"target":34962
		},
		{
			"buffer":0,
			"byteLength":16068,
			"byteOffset":263152,
			"target":34963
		},
		{
			"buffer":0,
			"byteLength":4104,
			"byteOffset":279220,
			"target":34962
		},
		{
			"buffer":0,
			"byteLength":4104,
			"byteOffset":283324,
			"target":34962
		},
		{
			"buffer":0,
			"byteLength":2736,
			"byteOffset":287428,
			"target":34962
		},
		{
			"buffer":0,
			"byteLength":1368,
			"byteOffset":290164,
			"target":34962
		},
		{
			"buffer":0,
			"byteLength":2736,
			"byteOffset":291532,
			"target":34962
		},
		{
			"buffer":0,
			"byteLength":2532,
			"byteOffset":294268,
			"target":34963
		},
		{
			"buffer":0,
			"byteLength":3168,
			"byteOffset":296800,
			"target":34962
		},
		{
			"buffer":0,
			"byteLength":3168,
			"byteOffset":299968,
			"target":34962
		},
		{
			"buffer":0,
			"byteLength":2112,
			"byteOffset":303136,
			"target":34962
		},
		{
			"buffer":0,
			"byteLength":1056,
			"byteOffset":305248,
			"target":34962
		},
		{
			"buffer":0,
			"byteLength":2112,
			"byteOffset":306304,
			"target":34962
		},
		{
			"buffer":0,
			"byteLength":1488,
			"byteOffset":308416,
			"target":34963
		},
		{
			"buffer":0,
			"byteLength":3504,
			"byteOffset":309904,
			"target":34962
		},
		{
			"buffer":0,
			"byteLength":3504,
			"byteOffset":313408,
			"target":34962
		},
		{
			"buffer":0,
			"byteLength":2336,
			"byteOffset":316912,
			"target":34962
		},
		{
			"buffer":0,
			"byteLength":1168,
			"byteOffset":319248,
			"target":34962
		},
		{
			"buffer":0,
			"byteLength":2336,
			"byteOffset":320416,
			"target":34962
		},
		{
			"buffer":0,
			"byteLength":1764,
			"byteOffset":322752,
			"target":34963
		},
		{
			"buffer":0,
			"byteLength":3420,
			"byteOffset":324516,
			"target":34962
		},
		{
			"buffer":0,
			"byteLength":3420,
			"byteOffset":327936,
			"target":34962
		},
		{
			"buffer":0,
			"byteLength":2280,
			"byteOffset":331356,
			"target":34962
		},
		{
			"buffer":0,
			"byteLength":1596,
			"byteOffset":333636,
			"target":34963
		},
		{
			"buffer":0,
			"byteLength":4572,
			"byteOffset":335232,
			"target":34962
		},
		{
			"buffer":0,
			"byteLength":4572,
			"byteOffset":339804,
			"target":34962
		},
		{
			"buffer":0,
			"byteLength":3048,
			"byteOffset":344376,
			"target":34962
		},
		{
			"buffer":0,
			"byteLength":1524,
			"byteOffset":347424,
			"target":34962
		},
		{
			"buffer":0,
			"byteLength":3048,
			"byteOffset":348948,
			"target":34962
		},
		{
			"buffer":0,
			"byteLength":2640,
			"byteOffset":351996,
			"target":34963
		}
	],
	"samplers":[
		{
			"magFilter":9729,
			"minFilter":9987
		}
	],
	"buffers":[
		{
			"byteLength":354636,
			"uri":"AK_47.bin"
		}
	]
}
