{
	"asset":{
		"generator":"Khronos glTF Blender I/O v5.1.19",
		"version":"2.0"
	},
	"extensionsUsed":[
		"KHR_materials_specular"
	],
	"scene":0,
	"scenes":[
		{
			"name":"Scene",
			"nodes":[
				0
			]
		}
	],
	"nodes":[
		{
			"mesh":0,
			"name":"Frigor"
		}
	],
	"materials":[
		{
			"doubleSided":true,
			"extensions":{
				"KHR_materials_specular":{
					"specularFactor":0,
					"specularColorFactor":[
						0.8999999761581421,
						0.8999999761581421,
						0.8999999761581421
					]
				}
			},
			"name":"Frigor",
			"normalTexture":{
				"index":0
			},
			"pbrMetallicRoughness":{
				"baseColorTexture":{
					"index":1
				},
				"metallicRoughnessTexture":{
					"index":2
				}
			}
		}
	],
	"meshes":[
		{
			"name":"Mesh.020",
			"primitives":[
				{
					"attributes":{
						"POSITION":0,
						"NORMAL":1,
						"TEXCOORD_0":2,
						"TEXCOORD_1":3
					},
					"indices":4,
					"material":0
				}
			]
		}
	],
	"textures":[
		{
			"sampler":0,
			"source":0
		},
		{
			"sampler":0,
			"source":1
		},
		{
			"sampler":0,
			"source":2
		}
	],
	"images":[
		{
			"mimeType":"image/png",
			"name":"Frigo_Normal",
			"uri":"Frigo_Normal.png"
		},
		{
			"mimeType":"image/png",
			"name":"Frigo_BaseColor",
			"uri":"Frigo_BaseColor.png"
		},
		{
			"mimeType":"image/png",
			"name":"Frigo_ORM",
			"uri":"Frigo_ORM.png"
		}
	],
	"accessors":[
		{
			"bufferView":0,
			"componentType":5126,
			"count":2648,
			"max":[
				0.3347195088863373,
				1.6079459190368652,
				0.3606862425804138
			],
			"min":[
				-0.33455929160118103,
				5.960464477539063e-08,
				-0.36381226778030396
			],
			"type":"VEC3"
		},
		{
			"bufferView":1,
			"componentType":5126,
			"count":2648,
			"type":"VEC3"
		},
		{
			"bufferView":2,
			"componentType":5126,
			"count":2648,
			"type":"VEC2"
		},
		{
			"bufferView":3,
			"componentType":5126,
			"count":2648,
			"type":"VEC2"
		},
		{
			"bufferView":4,
			"componentType":5123,
			"count":11778,
			"type":"SCALAR"
		}
	],
	"bufferViews":[
		{
			"buffer":0,
			"byteLength":31776,
			"byteOffset":0,
			"target":34962
		},
		{
			"buffer":0,
			"byteLength":31776,
			"byteOffset":31776,
			"target":34962
		},
		{
			"buffer":0,
			"byteLength":21184,
			"byteOffset":63552,
			"target":34962
		},
		{
			"buffer":0,
			"byteLength":21184,
			"byteOffset":84736,
			"target":34962
		},
		{
			"buffer":0,
			"byteLength":23556,
			"byteOffset":105920,
			"target":34963
		}
	],
	"samplers":[
		{
			"magFilter":9729,
			"minFilter":9987
		}
	],
	"buffers":[
		{
			"byteLength":129476,
			"uri":"Fridge.bin"
		}
	]
}
